Coordinates
version=1
nRows=65
nColumns=12
inDegrees=yes

Units are S.I. units (second, meters, Newtons, ...)
Angles are in degrees

endheader
time	SC_y	SC_z	SC_x	AC_y	AC_z	AC_x	GH_y	GH_z	GH_yy	EL_x	PS_y
       0.0              -42.07          29.71           52.6          48.28         -0.265         -18.12         -109.3          88.02         -164.2          75.87          97.54
   0.01947              -42.07           29.7           52.6          48.28        -0.2653         -18.12         -109.3          88.01         -164.1          75.87          97.53
   0.03895              -42.07           29.7           52.6          48.28        -0.2658         -18.12         -109.3          87.99         -164.1          75.87          97.52
   0.05842              -42.07           29.7          52.61          48.28        -0.2662         -18.12         -109.3          87.98         -164.1          75.87           97.5
    0.0779              -42.06           29.7          52.61          48.28        -0.2667         -18.12         -109.3          87.96         -164.1          75.87          97.49
   0.09737              -42.06          29.69          52.62          48.27        -0.2672         -18.12         -109.3          87.95         -164.1          75.87          97.47
    0.1168              -42.06          29.69          52.62          48.27        -0.2677         -18.12         -109.2          87.93         -164.1          75.87          97.45
    0.1363              -42.06          29.69          52.63          48.27        -0.2683         -18.12         -109.2          87.91         -164.1          75.87          97.43
    0.1558              -42.05          29.68          52.63          48.27        -0.2689         -18.12         -109.2          87.89         -164.1          75.87          97.41
    0.1753              -42.05          29.68          52.64          48.27        -0.2695         -18.12         -109.2          87.87         -164.1          75.87          97.39
    0.1947              -42.05          29.68          52.64          48.26        -0.2702         -18.12         -109.2          87.85         -164.1          75.87          97.36
    0.2142              -42.04          29.67          52.65          48.26         -0.271         -18.12         -109.1          87.83         -164.1          75.87          97.34
    0.2337              -42.04          29.67          52.66          48.26        -0.2718         -18.12         -109.1           87.8         -164.1          75.87          97.31
    0.2532              -42.03          29.66          52.67          48.25        -0.2727         -18.12         -109.1          87.77         -164.1          75.87          97.28
    0.2726              -42.03          29.66          52.67          48.25        -0.2737         -18.12         -109.0          87.74         -164.1          75.87          97.25
    0.2921              -42.02          29.65          52.68          48.25        -0.2747         -18.12         -109.0          87.71         -164.1          75.87          97.21
    0.3116              -42.02          29.65          52.69          48.24        -0.2758         -18.12         -109.0          87.67         -164.1          75.87          97.18
    0.3311              -42.01          29.64          52.71          48.24         -0.277         -18.12         -108.9          87.63         -164.1          75.87          97.13
    0.3505              -42.01          29.63          52.72          48.23        -0.2784         -18.12         -108.9          87.59         -164.1          75.87          97.09
      0.37               -42.0          29.62          52.73          48.23        -0.2798         -18.12         -108.8          87.55         -164.1          75.87          97.04
    0.3895              -41.99          29.61          52.74          48.22        -0.2814         -18.12         -108.8          87.49         -164.1          75.88          96.98
     0.409              -41.98           29.6          52.76          48.22        -0.2832         -18.12         -108.7          87.44         -164.0          75.88          96.92
    0.4284              -41.97          29.59          52.78          48.21        -0.2852         -18.12         -108.7          87.38         -164.0          75.88          96.86
    0.4479              -41.96          29.58           52.8           48.2        -0.2873         -18.12         -108.6          87.31         -164.0          75.88          96.78
    0.4674              -41.95          29.57          52.82          48.19        -0.2897         -18.12         -108.5          87.23         -164.0          75.88           96.7
    0.4869              -41.94          29.55          52.84          48.18        -0.2924         -18.12         -108.4          87.15         -164.0          75.88          96.61
    0.5063              -41.92          29.53          52.87          48.17        -0.2954         -18.12         -108.3          87.05         -164.0          75.88          96.51
    0.5258              -41.91          29.52           52.9          48.16        -0.2988         -18.12         -108.2          86.94         -163.9          75.89          96.39
    0.5453              -41.89          29.49          52.94          48.15        -0.3026         -18.12         -108.1          86.82         -163.9          75.89          96.26
    0.5648              -41.87          29.47          52.97          48.13         -0.307         -18.12         -108.0          86.68         -163.9          75.89          96.12
    0.5842              -41.84          29.44          53.02          48.11         -0.312         -18.12         -107.8          86.53         -163.9          75.89          95.95
    0.6037              -41.81          29.41          53.07          48.09        -0.3176         -18.12         -107.6          86.34         -163.8           75.9          95.75
    0.6232              -41.78          29.37          53.13          48.07        -0.3242         -18.12         -107.4          86.14         -163.8           75.9          95.53
    0.6427              -41.74          29.33           53.2          48.04        -0.3318         -18.12         -107.2          85.89         -163.8           75.9          95.27
    0.6621               -41.7          29.28          53.28          48.01        -0.3408         -18.12         -106.9          85.61         -163.7          75.91          94.97
    0.6816              -41.65          29.22          53.37          47.97        -0.3513         -18.12         -106.5          85.28         -163.6          75.91          94.61
    0.7011              -41.59          29.15          53.49          47.93        -0.3638         -18.12         -106.1          84.88         -163.6          75.92          94.18
    0.7206              -41.51          29.07          53.62          47.87        -0.3788         -18.12         -105.6           84.4         -163.5          75.93          93.67
      0.74              -41.43          28.96          53.78          47.81        -0.3969         -18.12         -105.0          83.83         -163.4          75.94          93.06
    0.7595              -41.32          28.84          53.98          47.73        -0.4191         -18.12         -104.3          83.12         -163.2          75.95          92.31
     0.779              -41.18          28.68          54.23          47.63        -0.4465         -18.13         -103.4          82.25         -163.1          75.97          91.38
    0.7985              -41.02          28.49          54.53          47.51        -0.4806         -18.13         -102.3          81.17         -162.9          75.99          90.22
    0.8179              -40.81          28.25          54.92          47.35        -0.5235         -18.13         -101.0          79.81         -162.6          76.01          88.76
    0.8374              -40.54          27.94          55.41          47.16        -0.5782         -18.13         -99.18          78.07         -162.3          76.04           86.9
    0.8569               -40.2          27.55          56.04          46.91        -0.6481         -18.14         -96.92          75.85         -161.9          76.08          84.52
    0.8764              -39.76          27.04          56.85          46.58        -0.7378         -18.14         -94.01           73.0         -161.3          76.13          81.47
    0.8958               -39.2           26.4          57.88          46.17        -0.8524         -18.15          -90.3          69.36         -160.6          76.19          77.58
    0.9153              -38.49          25.59          59.17          45.66        -0.9965         -18.16         -85.64          64.79         -159.8          76.27          72.68
    0.9348              -37.63           24.6          60.75          45.02         -1.172         -18.17         -79.95          59.21         -158.7          76.37          66.71
    0.9543              -36.64          23.45          62.58          44.29         -1.376         -18.18         -73.36          52.75         -157.5          76.48           59.8
    0.9737              -35.56          22.21          64.56           43.5         -1.596         -18.19         -66.23          45.75         -156.2           76.6          52.31
    0.9932              -34.48          20.97          66.54          42.71         -1.816          -18.2         -59.09          38.75         -154.9          76.72          44.81
     1.013              -33.49          19.83          68.37          41.98          -2.02         -18.21          -52.5          32.28         -153.6          76.83           37.9
     1.032              -32.63          18.84          69.95          41.35         -2.196         -18.22         -46.82          26.71         -152.6          76.93          31.93
     1.052              -31.92          18.03          71.25          40.83          -2.34         -18.23         -42.15          22.13         -151.7          77.01          27.03
     1.071              -31.36          17.38          72.28          40.42         -2.454         -18.24         -38.44          18.49         -151.0          77.07          23.14
     1.091              -30.92          16.88          73.08           40.1         -2.544         -18.24         -35.54          15.64         -150.5          77.12          20.09
      1.11              -30.58          16.48          73.71          39.85         -2.614         -18.25         -33.28          13.42         -150.1          77.16          17.71
      1.13              -30.31          16.18           74.2          39.65         -2.669         -18.25         -31.51          11.69         -149.8          77.19          15.85
     1.149               -30.1          15.93          74.59           39.5         -2.712         -18.25         -30.12          10.32         -149.5          77.21          14.39
     1.168              -29.94          15.74           74.9          39.37         -2.746         -18.25         -29.01          9.239         -149.3          77.23          13.23
     1.188               -29.8          15.59          75.14          39.28         -2.773         -18.25         -28.13           8.37         -149.1          77.25          12.31
     1.207               -29.7          15.46          75.34           39.2         -2.795         -18.26         -27.41          7.666         -149.0          77.26          11.55
     1.227              -29.61          15.36           75.5          39.13         -2.813         -18.26         -26.82           7.09         -148.9          77.27          10.94
     1.246              -29.53          15.28          75.64          39.08         -2.828         -18.26         -26.34          6.614         -148.8          77.28          10.43
